<svg width="24" height="24" viewBox="0 0 24 24" fill="none" xmlns="http://www.w3.org/2000/svg">
<path fill-rule="evenodd" clip-rule="evenodd" d="M12.2877 4.00494L12.0015 4.00012C7.86059 4.00012 4.12877 6.9232 2.06043 11.706C1.97921 11.8938 1.97921 12.1065 2.06043 12.2943L2.20375 12.6169C4.24589 17.0933 7.77495 19.8645 11.7113 19.9953L11.9975 20.0001C16.1384 20.0001 19.8702 17.077 21.9386 12.2943C22.0208 12.1041 22.0198 11.8885 21.9356 11.6992L21.7964 11.3858C19.7492 6.90103 16.2187 4.13559 12.2877 4.00494ZM12.0085 5.48955L12.2475 5.49469L12.5145 5.50858C15.7117 5.73497 18.6521 8.10566 20.4285 11.9992L20.4192 12.0233C18.5982 16.0006 15.5564 18.3854 12.2584 18.5051L12.0035 18.5089L11.7464 18.5055L11.4801 18.4916C8.38223 18.2722 5.52589 16.0345 3.73866 12.3598L3.56951 11.9992L3.72609 11.6663C5.61069 7.77328 8.69099 5.4904 12.0085 5.48955ZM11.9988 8.11363C9.83839 8.11363 8.08779 9.8533 8.08779 12.0004C8.08779 14.1466 9.83858 15.8861 11.9988 15.8861C14.1591 15.8861 15.9108 14.1465 15.9108 12.0004C15.9108 9.85341 14.1593 8.11363 11.9988 8.11363ZM11.9986 9.60391C13.3308 9.60391 14.4106 10.6765 14.4106 12.0003C14.4106 13.3233 13.3307 14.3958 11.9986 14.3958C10.6669 14.3958 9.58764 13.3235 9.58764 12.0003C9.58764 10.6763 10.6667 9.60391 11.9986 9.60391Z" fill="#A16AE8"/>
</svg>
