<svg width="36" height="36" viewBox="0 0 36 36" fill="none" xmlns="http://www.w3.org/2000/svg">
<path d="M21 28.75H15C9.57 28.75 7.25 26.43 7.25 21V15C7.25 9.57 9.57 7.25 15 7.25H21C26.43 7.25 28.75 9.57 28.75 15V21C28.75 26.43 26.43 28.75 21 28.75ZM15 8.75C10.39 8.75 8.75 10.39 8.75 15V21C8.75 25.61 10.39 27.25 15 27.25H21C25.61 27.25 27.25 25.61 27.25 21V15C27.25 10.39 25.61 8.75 21 8.75H15Z" fill="#F5EEFF"/>
<path d="M18 22.25C15.66 22.25 13.75 20.34 13.75 18C13.75 15.66 15.66 13.75 18 13.75C20.34 13.75 22.25 15.66 22.25 18C22.25 20.34 20.34 22.25 18 22.25ZM18 15.25C16.48 15.25 15.25 16.48 15.25 18C15.25 19.52 16.48 20.75 18 20.75C19.52 20.75 20.75 19.52 20.75 18C20.75 16.48 19.52 15.25 18 15.25Z" fill="#F5EEFF"/>
<path d="M23 13.5C22.87 13.5 22.74 13.47 22.62 13.42C22.5 13.37 22.39 13.3 22.29 13.21C22.2 13.11 22.12 13 22.07 12.88C22.02 12.76 22 12.63 22 12.5C22 12.37 22.02 12.24 22.07 12.12C22.13 11.99 22.2 11.89 22.29 11.79C22.34 11.75 22.39 11.7 22.44 11.67C22.5 11.63 22.56 11.6 22.62 11.58C22.68 11.55 22.74 11.53 22.81 11.52C23.13 11.45 23.47 11.56 23.71 11.79C23.8 11.89 23.87 11.99 23.92 12.12C23.97 12.24 24 12.37 24 12.5C24 12.63 23.97 12.76 23.92 12.88C23.87 13 23.8 13.11 23.71 13.21C23.61 13.3 23.5 13.37 23.38 13.42C23.26 13.47 23.13 13.5 23 13.5Z" fill="#F5EEFF"/>
</svg>
