<svg width="36" height="36" viewBox="0 0 36 36" fill="none" xmlns="http://www.w3.org/2000/svg">
<path d="M26.9622 16.7064L11.2403 7.69699C11.0086 7.56511 10.7463 7.49655 10.4797 7.4982C10.2131 7.49984 9.95164 7.57164 9.72158 7.70636C9.49617 7.8365 9.30903 8.02374 9.17901 8.24922C9.04899 8.4747 8.98068 8.73046 8.98096 8.99074V27.0095C8.98343 27.4057 9.14256 27.7848 9.4236 28.0641C9.70464 28.3434 10.0848 28.5001 10.481 28.5001C10.7466 28.4992 11.0077 28.4315 11.2403 28.3032L26.9622 19.2939C27.1951 19.1675 27.3896 18.9806 27.5251 18.7529C27.6607 18.5252 27.7322 18.2651 27.7322 18.0001C27.7322 17.7351 27.6607 17.475 27.5251 17.2473C27.3896 17.0196 27.1951 16.8327 26.9622 16.7064ZM19.4997 19.0595L21.2716 20.8314L13.0028 25.5564L19.4997 19.0595ZM13.0028 10.4345L21.2716 15.1689L19.4997 16.9407L13.0028 10.4345ZM22.6122 20.0532L20.5591 18.0001L22.6122 15.947L26.2122 18.0001L22.6122 20.0532Z" fill="#F5EEFF"/>
</svg>
