<svg width="36" height="36" viewBox="0 0 36 36" fill="none" xmlns="http://www.w3.org/2000/svg">
<path d="M28 11.8C27.2483 12.1261 26.4534 12.3417 25.64 12.44C26.4982 11.9273 27.1413 11.1208 27.45 10.17C26.6436 10.6501 25.7608 10.9883 24.84 11.17C24.2245 10.5026 23.405 10.0583 22.5098 9.90688C21.6147 9.75543 20.6945 9.90538 19.8938 10.3332C19.093 10.761 18.4569 11.4426 18.0852 12.2709C17.7135 13.0992 17.6273 14.0274 17.84 14.91C16.2094 14.8276 14.6144 14.403 13.1587 13.6639C11.7029 12.9248 10.4188 11.8877 9.39 10.62C9.02914 11.2502 8.83952 11.9638 8.84 12.69C8.83872 13.3644 9.00422 14.0286 9.32176 14.6236C9.63929 15.2185 10.099 15.7257 10.66 16.1C10.008 16.0823 9.36989 15.9073 8.8 15.59V15.64C8.80489 16.5849 9.13599 17.4991 9.73731 18.228C10.3386 18.9569 11.1733 19.4557 12.1 19.64C11.7433 19.7486 11.3729 19.8058 11 19.81C10.7419 19.807 10.4844 19.7836 10.23 19.74C10.4939 20.5528 11.0046 21.2632 11.6911 21.7722C12.3775 22.2812 13.2056 22.5636 14.06 22.58C12.6172 23.7153 10.8359 24.3349 9 24.34C8.66574 24.3411 8.33174 24.3211 8 24.28C9.87443 25.4903 12.0588 26.1327 14.29 26.13C15.8297 26.146 17.3571 25.855 18.7831 25.2741C20.2091 24.6932 21.505 23.8339 22.5952 22.7465C23.6854 21.6591 24.548 20.3654 25.1326 18.9409C25.7172 17.5164 26.012 15.9898 26 14.45C26 14.28 26 14.1 26 13.92C26.7847 13.3348 27.4615 12.6175 28 11.8Z" fill="#F5EEFF"/>
</svg>
