<svg width="36" height="36" viewBox="0 0 36 36" fill="none" xmlns="http://www.w3.org/2000/svg">
<path d="M27.9656 12.5437C27.8795 12.1981 27.7108 11.8785 27.474 11.6124C27.2373 11.3462 26.9395 11.1414 26.6063 11.0156C23.4 9.7781 18.2812 9.78748 18 9.78748C17.7188 9.78748 12.6 9.7781 9.39375 11.0156C9.06051 11.1414 8.76275 11.3462 8.52599 11.6124C8.28923 11.8785 8.12054 12.1981 8.03438 12.5437C7.79063 13.4719 7.5 15.1781 7.5 18C7.5 20.8219 7.79063 22.5281 8.03438 23.4562C8.12054 23.8019 8.28923 24.1214 8.52599 24.3876C8.76275 24.6537 9.06051 24.8585 9.39375 24.9844C12.4688 26.175 17.2875 26.2125 17.9344 26.2125H18.0656C18.7125 26.2125 23.5312 26.175 26.6063 24.9844C26.9395 24.8585 27.2373 24.6537 27.474 24.3876C27.7108 24.1214 27.8795 23.8019 27.9656 23.4562C28.2094 22.5281 28.5 20.8219 28.5 18C28.5 15.1781 28.2094 13.4719 27.9656 12.5437ZM21.2062 18.3094L16.7062 21.3094C16.6466 21.3533 16.5741 21.3763 16.5 21.375C16.4379 21.3727 16.3771 21.3567 16.3219 21.3281C16.262 21.2969 16.2118 21.2498 16.1771 21.1919C16.1423 21.1339 16.1243 21.0675 16.125 21V15C16.1243 14.9324 16.1423 14.866 16.1771 14.8081C16.2118 14.7502 16.262 14.703 16.3219 14.6719C16.3817 14.64 16.449 14.6249 16.5167 14.6282C16.5843 14.6315 16.6499 14.653 16.7062 14.6906L21.2062 17.6906C21.2585 17.7235 21.3016 17.7692 21.3315 17.8233C21.3614 17.8774 21.377 17.9382 21.377 18C21.377 18.0618 21.3614 18.1226 21.3315 18.1767C21.3016 18.2308 21.2585 18.2764 21.2062 18.3094Z" fill="#F5EEFF"/>
</svg>
